<svg width="241" height="214" viewBox="0 0 241 214" fill="none" xmlns="http://www.w3.org/2000/svg">
<path d="M60.0066 0C43.5048 0 28.8032 7.21701 17.7019 18.5132C6.90076 29.8094 0 45.1847 0 62.7566C0 80.0147 6.90076 95.39 17.7019 107L108.449 201.906C114.75 208.496 125.276 208.496 131.577 201.906L222.324 107C233.126 95.7038 240.026 80.3284 240.026 62.7566C240.026 45.4985 233.126 30.1232 222.324 18.5132C211.523 7.21701 196.822 0 180.02 0C163.518 0 148.816 7.21701 137.715 18.5132C126.914 29.8094 120.013 45.1847 120.013 62.7566C120.013 45.4985 113.112 30.1232 102.311 18.5132C91.5101 7.21701 76.8084 0 60.0066 0Z" fill="#EA4F0D"/>
</svg>
