<svg width="193" height="155" viewBox="0 0 193 155" fill="none" xmlns="http://www.w3.org/2000/svg">
<path d="M39.5328 0C46.7879 0 53.0806 1.47619 58.4108 4.42858C63.8891 7.38096 68.6272 11.2929 72.6249 16.1643C76.7706 20.8881 80.3982 26.2762 83.5075 32.3286C86.6168 38.2333 89.504 44.2857 92.1692 50.4857L99.2762 66.65L118.154 20.8143C120.227 15.9429 122.374 12.1048 124.595 9.3C126.964 6.49524 129.629 4.42857 132.59 3.1C135.7 1.62381 139.327 0.738099 143.473 0.442865C147.619 0.147622 152.505 0 158.131 0H167.015C175.158 0.147617 181.451 0.959525 185.893 2.43572C190.483 3.76429 192.778 6.64286 192.778 11.0714C192.778 13.8762 192.26 17.1238 191.223 20.8143C190.187 24.5048 189.076 28.4167 187.892 32.55C186.707 36.6833 185.597 40.9643 184.56 45.3929C183.524 49.6738 183.006 53.9548 183.006 58.2357V105.4C183.006 109.976 183.524 114.036 184.56 117.579C185.597 121.121 186.707 124.369 187.892 127.321C189.224 130.274 190.409 133.079 191.445 135.736C192.482 138.245 193 140.976 193 143.929C193 148.8 190.261 151.9 184.783 153.229C179.452 154.41 172.049 155 162.573 155C153.097 155 145.694 154.41 140.364 153.229C135.181 151.9 132.59 148.8 132.59 143.929C132.59 140.976 133.035 138.245 133.923 135.736C134.811 133.079 135.774 130.274 136.81 127.321C137.995 124.369 139.031 121.121 139.919 117.579C140.808 114.036 141.252 109.976 141.252 105.4V58.2357C141.252 57.2024 141.178 56.2429 141.03 55.3571C141.03 54.3238 140.956 53.3643 140.808 52.4786L117.71 104.514C116.081 108.205 115.415 111.748 115.711 115.143C116.155 118.538 116.896 121.933 117.932 125.329C119.117 128.576 120.301 131.898 121.486 135.293C122.67 138.54 123.262 141.936 123.262 145.479C123.262 149.612 120.597 152.269 115.267 153.45C109.937 154.483 102.83 155 93.9459 155C85.0621 155 78.3993 154.41 73.9574 153.229C69.5155 151.9 67.2946 148.8 67.2946 143.929C67.2946 140.976 67.7388 138.098 68.6272 135.293C69.5155 132.34 70.3299 129.314 71.0702 126.214C71.9586 123.114 72.4028 119.867 72.4028 116.471C72.4028 113.076 71.5144 109.386 69.7376 105.4L45.9735 51.3714V105.4C45.9735 108.943 46.5658 112.412 47.7503 115.807C49.0828 119.202 50.4894 122.524 51.9701 125.771C53.5988 128.871 55.0054 131.971 56.1899 135.071C57.5224 138.024 58.1887 140.976 58.1887 143.929C58.1887 146.29 57.3003 148.21 55.5236 149.686C53.7468 151.162 51.4519 152.343 48.6387 153.229C45.8255 153.967 42.6421 154.483 39.0886 154.779C35.5351 154.926 31.9816 155 28.4281 155C24.8746 155 21.3951 154.926 17.9896 154.779C14.5842 154.483 11.5489 153.967 8.88377 153.229C6.21864 152.343 4.07173 151.162 2.44304 149.686C0.814346 148.21 0 146.29 0 143.929C0 140.976 0.444189 138.024 1.33257 135.071C2.36901 131.971 3.47948 128.871 4.66398 125.771C5.99655 122.524 7.10702 119.202 7.9954 115.807C9.03184 112.412 9.55006 108.943 9.55006 105.4V49.6C9.55006 46.0572 9.03184 42.5881 7.9954 39.1929C7.10702 35.7976 5.99655 32.55 4.66398 29.45C3.47948 26.2024 2.36901 23.0286 1.33257 19.9286C0.444189 16.8286 0 13.8762 0 11.0714C0 8.5619 0.814346 6.64285 2.44304 5.31428C4.07173 3.83809 6.21864 2.73095 8.88377 1.99286C11.5489 1.10715 14.5842 0.590482 17.9896 0.442865C21.3951 0.147622 24.8746 0 28.4281 0H39.5328Z" fill="#EA4F0D"/>
</svg>
