<svg width="291" height="291" viewBox="0 0 291 291" fill="none" xmlns="http://www.w3.org/2000/svg">
<path d="M0 136.5V230.546C0 263.683 26.8629 290.546 60 290.546H230.183C263.32 290.546 290.183 263.683 290.183 230.546V204.216C290.776 201.589 290.776 198.863 290.183 196.236V60C290.183 26.8629 263.32 0 230.183 0H60C26.8629 0 0 26.8629 0 60V136.5ZM36.2729 71.6356C36.2729 52.3057 51.9429 36.6356 71.2729 36.6356H218.91C238.24 36.6356 253.91 52.3056 253.91 71.6356V181.727H199.501C198.415 181.629 197.322 181.629 196.236 181.727C191.426 182.16 186.985 184.486 183.89 188.193C180.795 191.901 179.299 196.686 179.732 201.496C180.165 206.306 182.491 210.747 186.198 213.842C189.906 216.937 194.691 218.433 199.501 218H253.91V219.273C253.91 238.603 238.24 254.273 218.91 254.273H71.2729C51.9429 254.273 36.2729 238.603 36.2729 219.273V71.6356ZM126.955 72.9085C96.8486 72.9085 72.5458 97.2113 72.5458 127.318C72.5458 163.591 126.955 218 126.955 218C126.955 218 181.364 163.591 181.364 127.318C181.364 97.2113 157.062 72.9085 126.955 72.9085ZM126.955 109.181C137.111 109.181 145.092 117.161 145.092 127.318C145.092 137.474 137.111 145.454 126.955 145.454C116.799 145.454 108.819 137.474 108.819 127.318C108.819 117.161 116.799 109.181 126.955 109.181Z" fill="#EA4F0D"/>
</svg>
